<svg width="437" height="190" viewBox="0 0 437 190" fill="none" xmlns="http://www.w3.org/2000/svg">
<g clip-path="url(#clip0)">
<path d="M63.9662 128.571C58.6735 132.981 52.632 136.401 46.1304 138.668C35.8067 141.958 25.6629 141.89 16.3064 135.896C8.07447 130.645 4.02597 122.374 1.93425 113.201C-0.271269 102.583 -0.583471 91.6565 1.01209 80.9288C2.43275 67.2334 6.9229 54.0366 14.1472 42.3237C21.9743 30.2216 32.1405 20.8689 46.5802 17.5335C53.0483 15.8086 59.9139 16.3922 65.9997 19.1841C72.0854 21.9761 77.0122 26.8025 79.9353 32.8358C82.771 38.5818 84.9515 44.6297 86.4354 50.8651C87.4475 54.8766 89.1119 58.7303 90.0116 62.7644C94.3525 82.1007 89.1569 99.1835 77.4388 114.598C76.6352 115.949 75.6345 117.172 74.4699 118.227C71.6584 120.323 71.7259 122.734 72.8954 125.596C73.8243 127.592 74.5769 129.666 75.1446 131.794C75.437 133.101 75.5045 135.197 74.7398 135.805C74.1094 136.112 73.4119 136.254 72.712 136.219C72.0121 136.183 71.3325 135.971 70.7362 135.603C68.3385 133.399 66.0776 131.051 63.9662 128.571ZM74.2 35.405C71.9057 30.1994 68.1058 25.8031 63.2915 22.7845C60.2747 20.9148 56.7162 20.1207 53.1927 20.5309C47.9058 21.3833 42.9174 23.5531 38.6856 26.8411C26.2252 35.8557 19.1629 48.679 14.867 63.17C10.8905 76.669 9.53147 90.8063 10.8634 104.818C11.6731 113.607 13.7199 121.99 19.3203 129.112C21.3153 132.002 24.1723 134.184 27.4816 135.346C30.7908 136.508 34.3823 136.59 37.741 135.58C46.22 132.715 53.9193 127.916 60.2326 121.562C60.7121 121.186 61.0492 120.657 61.1882 120.063C61.3273 119.469 61.2599 118.845 60.9973 118.294C58.3625 109.765 56.5917 100.992 55.7118 92.107C54.4748 81.1064 54.4748 70.0014 55.7118 59.0008C56.1647 52.6676 57.6857 46.4572 60.2101 40.6335C61.026 38.6495 62.4817 36.9966 64.3448 35.9386C66.2079 34.8806 68.371 34.4785 70.4888 34.7965C71.7396 34.9035 72.9804 35.1069 74.2 35.405ZM69.3418 110.474C77.9336 98.913 82.8368 86.1573 81.7572 71.7114C81.0603 60.9593 77.2803 50.6375 70.8712 41.9857C63.3365 64.7025 65.0009 87.5321 69.3418 110.474Z" fill="#FBFBFB"/>
<path d="M410.878 126.34C407.324 129.36 404.13 132.515 400.374 135.174C394.121 140.069 386.447 142.791 378.512 142.927C370.303 142.927 363.038 140.673 358.27 134.273C355.073 135.465 351.776 136.37 348.418 136.977C338.949 137.811 332.809 133.033 331.662 123.838C330.396 114.379 332.901 104.8 338.635 97.1777C339.817 95.629 341.142 94.1953 342.593 92.8958C348.553 87.2165 358.652 88.9068 363.308 95.3973C364.14 96.5467 364.927 97.651 365.715 98.8905C366.502 100.13 365.962 100.761 364.837 101.144C363.46 101.69 361.937 101.741 360.527 101.289C359.116 100.837 357.906 99.9102 357.1 98.6651C356.445 97.4995 355.692 96.3913 354.851 95.3522C352.422 92.4676 351.23 92.5126 348.733 95.3522C344.778 99.9659 342.185 105.593 341.244 111.601C340.042 116.839 340.354 122.311 342.143 127.377C344.595 133.484 346.192 134.138 351.14 129.63C352.377 128.462 353.276 126.98 353.739 125.341C354.203 123.702 354.214 121.968 353.771 120.323C353.367 115.825 353.367 111.299 353.771 106.801C353.812 105.878 354.212 105.008 354.884 104.377C355.556 103.745 356.449 103.402 357.37 103.42C358.864 103.24 360.374 103.24 361.868 103.42C362.498 103.42 363.121 103.545 363.702 103.786C364.283 104.027 364.811 104.381 365.256 104.826C365.701 105.272 366.054 105.801 366.295 106.384C366.535 106.966 366.659 107.59 366.659 108.221C366.735 112.345 366.404 116.467 365.67 120.526C364.612 126.047 368.414 134.453 373.497 136.887C374.704 137.427 376.007 137.717 377.329 137.74C378.651 137.763 379.963 137.519 381.189 137.022C388.738 134.066 395.526 129.445 401.049 123.5C404.4 120.233 404.783 117.709 402.218 113.427C396.801 104.3 393.125 94.2425 391.378 83.7685C387.816 64.4859 389.068 44.6203 395.021 25.9396C397.81 17.3307 401.971 9.42034 409.348 3.71859C412.435 1.39812 416.152 0.0716132 420.008 -0.0853367C423.864 -0.242287 427.676 0.777717 430.94 2.83966C432.53 4.07012 433.832 5.63313 434.757 7.4197C435.681 9.20627 436.206 11.1734 436.293 13.1839C437.213 21.8498 437.016 30.5981 435.709 39.2137C434.786 46.7409 434.157 54.3357 433.01 61.7502C430.58 77.5258 428.039 93.4817 421.584 108.356C420.467 110.865 419.213 113.31 417.828 115.68C417.417 116.143 417.19 116.74 417.19 117.359C417.19 117.978 417.417 118.576 417.828 119.038C421.134 122.712 424.35 126.453 427.544 130.306C428.801 131.699 429.923 133.208 430.895 134.814C431.952 136.639 431.503 137.315 429.343 137.518C428.495 137.564 427.644 137.473 426.824 137.248C420.707 135.85 416.321 131.816 412.025 127.625C411.677 127.167 411.293 126.737 410.878 126.34ZM410.878 107.274H412.025C413.577 102.767 415.309 98.575 416.523 94.1127C419.969 81.4407 422.369 68.5062 423.698 55.44C425.511 43.4252 426.361 31.2843 426.24 19.1336C426.01 15.2918 425.253 11.5 423.99 7.86531C422.956 4.77781 421.741 4.68766 419.132 6.69341C415.466 9.80396 412.59 13.7436 410.743 18.1871C404.513 31.709 402.758 46.2 402.736 60.8037C402.914 69.5957 403.84 78.3566 405.502 86.9912C406.672 93.7522 409.078 100.513 410.923 107.274H410.878Z" fill="#FBFBFB"/>
<path d="M168.822 56.747C171.274 55.1019 173.321 53.5468 175.57 52.2397C177.174 51.1705 178.976 50.4359 180.87 50.0797C182.763 49.7235 184.709 49.753 186.591 50.1664C189.56 50.9101 190.527 52.42 189.695 55.4174C187.715 62.5164 190.369 68.5111 194.193 74.2354C195.812 76.6919 195.632 77.5032 192.754 78.1793C190.618 78.7287 188.362 78.561 186.33 77.7021C184.299 76.8432 182.605 75.3404 181.508 73.4241C178.724 69.885 177.063 65.591 176.739 61.0966C174.49 62.7868 172.534 64.2292 170.689 65.8067C170.509 66.041 170.38 66.3105 170.311 66.5977C170.241 66.8849 170.232 67.1835 170.284 67.4744C172.016 77.7286 173.95 87.9376 175.525 98.2143C177.302 110.069 177.212 121.742 172.241 133.056C163.514 152.753 142.102 152.865 130.362 142.904C122.981 137.049 117.88 128.788 115.944 119.556C115.465 117.098 115.515 114.565 116.093 112.128C116.671 109.69 117.763 107.405 119.296 105.426C123.889 98.8756 128.916 92.6415 134.343 86.7657C141.517 79.4414 149.48 72.8381 157.194 66.0546C157.738 65.6796 158.16 65.153 158.407 64.5401C158.655 63.9272 158.718 63.255 158.589 62.6065C157.577 51.3383 156.654 40.07 155.687 28.8017C146.691 34.5936 136.03 37.005 125.031 38.9882C125.098 39.802 125.234 40.6086 125.436 41.3996C126.785 45.4337 128.112 49.4452 129.552 53.4342C130.114 54.9667 129.552 55.6878 128.135 55.9132C124.581 56.4541 122.152 55.9132 120.6 53.006C117.991 48.2733 115.697 43.3603 113.38 38.4474C113.102 38.0403 112.995 37.5395 113.084 37.054C113.172 36.5686 113.449 36.1379 113.853 35.8556C114.179 35.6359 114.562 35.5182 114.955 35.5176C117.744 35.157 120.578 35.0894 123.322 34.6387C135.729 32.9934 147.422 27.8773 157.059 19.8772C158.077 18.8623 159.359 18.1549 160.759 17.8361C162.159 17.5172 163.621 17.5998 164.976 18.0743C166.573 18.5701 167.225 19.2687 167.225 21.4322C166.978 28.4637 167.225 35.5176 167.473 42.549C167.63 46.6056 168.17 50.6622 168.53 54.7188C168.575 55.3272 168.687 55.8456 168.822 56.747ZM160.186 73.4692C156.137 77.1426 152.358 80.3879 148.782 83.8585C141.274 90.7932 134.683 98.6623 129.17 107.274C126.699 110.858 125.678 115.248 126.313 119.556C127.911 127.726 132.301 135.082 138.729 140.358C145.026 145.992 151.031 145.586 156.115 139.524C159.541 135.304 161.999 130.379 163.312 125.1C165.966 115.139 165.291 105.043 163.874 94.9916C162.885 88.0278 161.513 81.1091 160.186 73.4692Z" fill="#FBFBFB"/>
<path d="M279.256 143.896C278.497 144.687 277.51 145.22 276.434 145.422C275.357 145.624 274.245 145.484 273.251 145.023C262.613 142.071 252.221 131.726 254.403 118.565C255.618 111.195 256.495 103.758 257.53 96.3664L247.948 97.651C249.56 101.203 250.855 104.89 251.817 108.671C252.603 112.659 252.417 116.778 251.273 120.679C250.13 124.579 248.063 128.145 245.249 131.073C236.252 140.876 225.007 145.519 211.669 143.626C208.615 143.017 205.667 141.961 202.92 140.493C202.441 140.216 201.898 140.07 201.345 140.07C200.793 140.07 200.25 140.216 199.771 140.493C197.073 142.06 194.07 143.029 190.967 143.337C187.863 143.644 184.73 143.281 181.778 142.273C180.539 141.601 179.446 140.69 178.561 139.592C179.821 139.231 181.103 138.848 182.385 138.532C182.771 138.441 183.177 138.489 183.532 138.668C188.03 141.755 191.516 138.983 195.16 136.932C195.97 136.481 196.712 135.896 197.589 135.31C196.892 133.349 196.105 131.478 195.587 129.563C192.394 118.522 192.394 106.799 195.587 95.7579C197.994 87.5546 203.662 84.4896 211.894 86.901C215.315 87.6557 218.442 89.3945 220.891 91.9041C222.563 93.8056 223.723 96.1044 224.258 98.5818C224.794 101.059 224.687 103.633 223.949 106.057C221.811 116.194 216.824 125.507 209.577 132.898C209.307 133.169 209.06 133.462 208.813 133.732C211.534 138.893 214.076 140.313 219.541 138.622C230.337 135.265 238.457 128.887 241.246 117.303C242.065 114.095 242.126 110.74 241.423 107.504C240.72 104.268 239.273 101.242 237.197 98.6651C237.017 98.4172 236.725 98.2144 236.612 97.9214C236.072 96.5467 235.555 95.1719 235.038 93.7972C236.612 93.2338 238.254 92.0168 239.716 92.2197C246.016 92.8193 252.372 92.184 258.429 90.3491C260.809 89.9205 263.252 89.9896 265.604 90.5519C266.19 90.6244 266.757 90.8119 267.271 91.1037C267.785 91.3955 268.236 91.7859 268.6 92.2526C268.963 92.7193 269.231 93.2531 269.389 93.8236C269.546 94.3941 269.59 94.9901 269.518 95.5776C269.49 95.8616 269.43 96.1414 269.338 96.4115C268.168 102.474 266.819 108.514 265.851 114.621C264.552 120.796 265.172 127.222 267.628 133.033C269.378 136.98 272.471 140.175 276.355 142.048C277.36 142.603 278.329 143.22 279.256 143.896ZM208.835 90.9576C203.55 102.451 204.044 113.855 206.024 126.002C206.698 125.168 206.991 124.853 207.238 124.492C210.888 118.798 213.415 112.456 214.683 105.809C215.407 103.032 215.231 100.096 214.18 97.4263C213.129 94.7563 211.257 92.4908 208.835 90.9576Z" fill="#FBFBFB"/>
<path d="M315.536 92.8957L302.445 94.8339C302.738 98.8679 303.165 102.722 303.3 106.598C303.746 117.865 299.912 128.882 292.572 137.428C290.637 139.682 288.995 142.499 285.667 143.107C284.669 143.329 283.631 143.297 282.649 143.013C281.667 142.73 280.771 142.204 280.044 141.485C285.734 139.231 288.006 134.025 290.435 129.292C296.103 118.294 296.283 106.756 293.044 94.9691C292.752 93.9775 291.559 93.2563 290.952 92.3098C290.345 91.3633 289.535 90.2139 289.693 89.3124C289.85 88.411 291.245 87.7123 292.167 87.5771C294.888 87.2165 297.677 86.8785 299.859 89.2899C300.101 89.5229 300.393 89.6985 300.712 89.8038C301.031 89.9091 301.37 89.9414 301.703 89.8984C306.516 88.9068 311.285 87.6447 316.098 86.7883C318.266 86.252 320.505 86.0619 322.733 86.2249C327.006 86.7433 327.973 88.4786 326.781 92.5126C325.162 98.1468 323.205 103.781 321.721 109.37C319.921 116.131 318.572 122.892 320.461 129.968C321.18 132.31 322.13 134.575 323.295 136.729C323.586 137.028 323.937 137.261 324.325 137.412C324.713 137.564 325.129 137.631 325.544 137.608C326.82 137.361 328.114 137.225 329.413 137.203C329.944 137.345 330.436 137.608 330.85 137.971C331.263 138.335 331.587 138.789 331.797 139.299C331.977 139.975 330.987 141.349 330.2 141.778C328.081 143.023 325.645 143.621 323.191 143.497C320.737 143.373 318.373 142.532 316.39 141.079C309.643 136.279 307.394 129.225 308.023 121.066C308.631 112.052 312.027 103.871 314.928 95.5325L315.603 93.7747C315.603 93.4804 315.58 93.1866 315.536 92.8957Z" fill="#FBFBFB"/>
</g>
<path d="M21.048 175.408C21.074 175.356 21.1 175.33 21.152 175.33C21.204 175.33 21.23 175.356 21.256 175.408L23.284 180.764C23.336 180.894 23.362 180.972 23.362 181.024C23.362 181.128 23.284 181.206 23.154 181.206L18.994 181.18C18.838 181.18 18.76 181.102 18.76 180.998C18.76 180.92 18.786 180.868 18.838 180.738L21.048 175.408ZM29.524 185.158C28.952 183.754 24.298 171.534 23.908 170.494C23.804 170.234 23.622 170.104 23.284 170.104H21.62C21.308 170.104 21.126 170.234 20.996 170.52L15.25 183.442C14.73 184.612 14.288 185.392 13.872 186.068C13.248 187.056 12.806 187.342 12.39 187.602C12.156 187.758 12 187.914 12 188.2C12 188.694 12.468 188.876 12.988 188.876H17.33C17.824 188.876 18.344 188.694 18.344 188.2C18.344 187.784 17.928 187.654 17.668 187.472C17.408 187.29 16.966 186.874 16.966 186.12C16.966 185.626 17.096 184.872 17.564 183.702C17.668 183.416 17.824 183.312 18.058 183.312H23.7C24.168 183.312 24.298 183.494 24.428 183.78C24.428 183.78 25.052 185.392 25.234 185.886C25.338 186.172 25.39 186.38 25.39 186.588C25.39 187.68 24.116 187.446 24.116 188.226C24.116 188.642 24.506 188.876 25.026 188.876H30.902C31.63 188.876 31.864 188.538 31.864 188.174C31.864 187.628 31.162 187.55 30.694 187.16C30.2 186.77 29.992 186.302 29.524 185.158Z" fill="#FBFBFB"/>
<path d="M61.6606 170.312H56.7206C56.0186 170.312 55.6286 170.572 55.6286 171.014C55.6286 171.534 56.3046 171.69 56.8246 171.976C57.3706 172.262 57.8906 172.626 58.0206 174.81C58.1246 176.552 58.1246 180.01 58.1246 182.87C58.1246 182.974 58.0726 183.026 57.9946 183.026C57.9166 183.026 57.8646 182.948 57.8126 182.87L49.6226 170.962C49.3106 170.52 48.9466 170.312 48.2706 170.312H44.0326C43.4606 170.312 42.9666 170.52 42.9666 171.04C42.9666 171.638 43.5906 171.716 44.3446 172.106C44.7606 172.314 45.1246 172.626 45.2286 172.73C45.3586 172.86 45.3846 172.964 45.3846 173.172C45.3846 173.744 45.3326 183.598 45.2806 184.378C45.0986 186.614 44.4486 186.978 43.7986 187.316C43.4346 187.498 42.7846 187.654 42.7846 188.2C42.7846 188.564 43.0706 188.876 43.8506 188.876H49.2586C49.9606 188.876 50.3506 188.59 50.3506 188.148C50.3506 187.55 49.5186 187.394 49.0766 187.16C48.5566 186.9 47.7506 186.458 47.6206 184.378C47.5686 183.234 47.5686 178.294 47.5686 176.214C47.5686 176.11 47.6206 176.058 47.6726 176.058C47.7506 176.058 47.8026 176.136 47.8546 176.214L56.4346 188.616C56.6426 188.928 56.9286 189.084 57.3706 189.084H59.8146C60.1006 189.084 60.2826 188.902 60.2826 188.668C60.2826 187.758 60.2826 176.552 60.4126 174.81C60.5686 172.6 61.0626 172.21 61.7126 171.872C62.0766 171.69 62.7266 171.508 62.7266 170.962C62.7266 170.598 62.4406 170.312 61.6606 170.312Z" fill="#FBFBFB"/>
<path d="M81.7621 175.408C81.7881 175.356 81.8141 175.33 81.8661 175.33C81.9181 175.33 81.9441 175.356 81.9701 175.408L83.9981 180.764C84.0501 180.894 84.0761 180.972 84.0761 181.024C84.0761 181.128 83.9981 181.206 83.8681 181.206L79.7081 181.18C79.5521 181.18 79.4741 181.102 79.4741 180.998C79.4741 180.92 79.5001 180.868 79.5521 180.738L81.7621 175.408ZM90.2381 185.158C89.6661 183.754 85.0121 171.534 84.6221 170.494C84.5181 170.234 84.3361 170.104 83.9981 170.104H82.3341C82.0221 170.104 81.8401 170.234 81.7101 170.52L75.9641 183.442C75.4441 184.612 75.0021 185.392 74.5861 186.068C73.9621 187.056 73.5201 187.342 73.1041 187.602C72.8701 187.758 72.7141 187.914 72.7141 188.2C72.7141 188.694 73.1821 188.876 73.7021 188.876H78.0441C78.5381 188.876 79.0581 188.694 79.0581 188.2C79.0581 187.784 78.6421 187.654 78.3821 187.472C78.1221 187.29 77.6801 186.874 77.6801 186.12C77.6801 185.626 77.8101 184.872 78.2781 183.702C78.3821 183.416 78.5381 183.312 78.7721 183.312H84.4141C84.8821 183.312 85.0121 183.494 85.1421 183.78C85.1421 183.78 85.7661 185.392 85.9481 185.886C86.0521 186.172 86.1041 186.38 86.1041 186.588C86.1041 187.68 84.8301 187.446 84.8301 188.226C84.8301 188.642 85.2201 188.876 85.7401 188.876H91.6161C92.3441 188.876 92.5781 188.538 92.5781 188.174C92.5781 187.628 91.8761 187.55 91.4081 187.16C90.9141 186.77 90.7061 186.302 90.2381 185.158Z" fill="#FBFBFB"/>
<path d="M133.292 183.052C132.798 183.052 132.46 183.39 132.044 184.014C131.16 185.34 130.354 186.094 128.846 186.51C128.482 186.614 127.806 186.744 127.234 186.744C126.896 186.744 126.61 186.692 126.402 186.588C125.83 186.276 125.83 185.392 125.83 183.832V173.874C125.83 172.86 125.882 172.21 126.584 171.794C127.052 171.508 127.52 171.43 127.52 170.91C127.52 170.598 127.26 170.312 126.662 170.312H120.708C120.11 170.312 119.824 170.598 119.824 170.91C119.824 171.43 120.318 171.508 120.786 171.794C121.462 172.21 121.514 172.834 121.514 173.848V183.598C121.514 185.418 121.384 185.964 121.254 186.328C121.098 186.77 120.812 187.134 120.344 187.394C119.954 187.602 119.668 187.758 119.668 188.2C119.668 188.642 120.084 188.876 120.656 188.876H127.286C130.042 188.876 131.186 189.084 132.174 189.084C134.228 189.084 133.734 186.718 134.202 185.028C134.28 184.716 134.41 184.248 134.41 183.962C134.41 183.338 133.812 183.052 133.292 183.052Z" fill="#FBFBFB"/>
<path d="M163.089 170.312H158.175C157.473 170.312 157.083 170.572 157.083 170.988C157.083 171.56 157.759 171.69 158.279 171.976C158.799 172.262 159.371 172.626 159.475 174.784C159.527 175.746 159.553 177.514 159.553 178.788C159.553 179.88 159.527 181.05 159.501 181.778C159.397 184.612 157.811 186.25 155.237 186.25C153.391 186.25 152.013 185.522 151.337 183.884C151.077 183.234 150.973 182.428 150.973 181.518V174.108C150.973 172.938 150.973 172.262 151.701 171.794C152.169 171.482 152.637 171.43 152.637 170.91C152.637 170.598 152.377 170.312 151.779 170.312H145.851C145.253 170.312 144.967 170.572 144.967 170.91C144.967 171.43 145.435 171.482 145.903 171.794C146.657 172.262 146.657 172.938 146.657 174.108V182.246C146.657 183.312 146.761 184.326 147.021 185.106C148.139 188.304 151.233 189.162 154.301 189.162C157.811 189.162 160.359 187.732 161.321 184.924C161.607 184.092 161.711 183.286 161.737 182.22C161.763 180.53 161.763 175.668 161.841 174.784C161.997 172.6 162.517 172.236 163.141 171.872C163.505 171.664 164.155 171.482 164.155 170.962C164.155 170.598 163.895 170.312 163.089 170.312Z" fill="#FBFBFB"/>
<path d="M182.991 187.446C182.497 187.16 182.185 186.77 182.029 186.328C181.899 185.964 181.795 185.418 181.795 183.598V173.614C181.795 172.756 181.873 172.184 182.523 171.794C182.991 171.508 183.459 171.43 183.459 170.91C183.459 170.598 183.199 170.312 182.601 170.312H176.699C176.101 170.312 175.815 170.598 175.815 170.91C175.815 171.43 176.309 171.508 176.777 171.794C177.505 172.236 177.505 172.964 177.505 174.134V183.598C177.505 185.418 177.375 185.964 177.245 186.328C177.089 186.77 176.803 187.16 176.283 187.446C175.919 187.654 175.659 187.81 175.659 188.2C175.659 188.642 176.075 188.876 176.647 188.876H182.627C183.199 188.876 183.641 188.642 183.641 188.2C183.641 187.81 183.355 187.654 182.991 187.446Z" fill="#FBFBFB"/>
<path d="M208.47 171.456C207.482 170.52 205.428 170 203.452 170C199.214 170 196.302 172.574 196.302 175.746C196.302 181.804 205.948 180.348 205.948 184.43C205.948 185.262 205.532 185.886 205.064 186.302C204.492 186.796 203.634 186.978 202.88 186.978C201.034 186.978 199.864 185.912 198.98 184.976C197.628 183.546 197.446 182.584 196.562 182.584C196.068 182.584 195.574 182.974 195.574 183.78C195.574 184.092 195.626 184.43 195.626 184.768C195.626 185.522 195.704 186.38 196.146 187.082C196.978 188.382 199.63 189.162 202.256 189.162C206.702 189.162 209.978 186.64 209.978 183.104C209.978 176.448 200.306 178.216 200.306 174.238C200.306 172.782 201.554 172.08 202.776 172.08C204.362 172.08 205.376 173.146 206.13 174.03C206.962 175.018 207.3 175.772 208.106 175.772C209.068 175.772 209.12 174.784 209.12 173.978C209.12 173.094 208.964 171.95 208.47 171.456Z" fill="#FBFBFB"/>
<path d="M229.449 175.408C229.475 175.356 229.501 175.33 229.553 175.33C229.605 175.33 229.631 175.356 229.657 175.408L231.685 180.764C231.737 180.894 231.763 180.972 231.763 181.024C231.763 181.128 231.685 181.206 231.555 181.206L227.395 181.18C227.239 181.18 227.161 181.102 227.161 180.998C227.161 180.92 227.187 180.868 227.239 180.738L229.449 175.408ZM237.925 185.158C237.353 183.754 232.699 171.534 232.309 170.494C232.205 170.234 232.023 170.104 231.685 170.104H230.021C229.709 170.104 229.527 170.234 229.397 170.52L223.651 183.442C223.131 184.612 222.689 185.392 222.273 186.068C221.649 187.056 221.207 187.342 220.791 187.602C220.557 187.758 220.401 187.914 220.401 188.2C220.401 188.694 220.869 188.876 221.389 188.876H225.731C226.225 188.876 226.745 188.694 226.745 188.2C226.745 187.784 226.329 187.654 226.069 187.472C225.809 187.29 225.367 186.874 225.367 186.12C225.367 185.626 225.497 184.872 225.965 183.702C226.069 183.416 226.225 183.312 226.459 183.312H232.101C232.569 183.312 232.699 183.494 232.829 183.78C232.829 183.78 233.453 185.392 233.635 185.886C233.739 186.172 233.791 186.38 233.791 186.588C233.791 187.68 232.517 187.446 232.517 188.226C232.517 188.642 232.907 188.876 233.427 188.876H239.303C240.031 188.876 240.265 188.538 240.265 188.174C240.265 187.628 239.563 187.55 239.095 187.16C238.601 186.77 238.393 186.302 237.925 185.158Z" fill="#FBFBFB"/>
<path d="M282.227 175.018C282.227 174.524 282.175 173.614 282.149 172.912C282.123 172.158 282.149 171.534 282.097 171.04C282.019 170.312 281.707 170.13 280.979 170.13C280.017 170.13 278.041 170.312 275.311 170.312H268.395C267.797 170.312 267.511 170.598 267.511 170.91C267.511 171.43 268.005 171.508 268.473 171.794C269.149 172.184 269.201 172.756 269.201 173.692V183.624C269.201 185.288 269.097 186.224 268.733 186.77C268.161 187.628 267.355 187.446 267.355 188.2C267.355 188.642 267.771 188.876 268.343 188.876H274.375C274.947 188.876 275.363 188.642 275.363 188.2C275.363 187.394 274.427 187.55 273.933 186.692C273.621 186.172 273.517 185.392 273.517 183.624V181.466C273.517 181.232 273.673 181.05 273.907 181.05C274.609 181.05 275.779 181.05 276.533 181.076C277.235 181.102 278.093 181.154 278.613 181.154C279.575 181.154 279.757 180.712 279.783 179.906C279.783 179.672 279.861 179.438 279.861 179.204C279.861 178.71 279.497 178.58 278.951 178.58C278.249 178.58 277.469 178.71 276.585 178.762C275.753 178.814 274.817 178.814 274.245 178.814C273.569 178.814 273.517 178.45 273.517 177.982C273.517 177.644 273.517 173.12 273.517 173.12C273.517 172.626 273.621 172.392 274.219 172.392H274.505C276.325 172.392 277.469 172.392 278.405 172.886C279.315 173.354 279.731 174.212 279.991 174.81C280.407 175.772 280.615 175.928 281.135 175.928C281.759 175.928 282.227 175.72 282.227 175.018Z" fill="#FBFBFB"/>
<path d="M308.564 183.052C308.07 183.052 307.732 183.39 307.316 184.04C305.912 186.146 304.326 186.744 301.96 186.744C301.44 186.744 300.998 186.718 300.764 186.588C300.27 186.328 300.218 185.626 300.218 184.43V180.738C300.218 180.478 300.348 180.322 300.608 180.322C301.778 180.322 302.48 180.322 303.26 180.348C303.91 180.374 304.508 180.426 305.002 180.426C306.328 180.426 306.432 180.114 306.484 179.204C306.51 178.97 306.562 178.71 306.562 178.476C306.562 177.956 306.172 177.852 305.704 177.852C305.158 177.852 304.456 177.956 303.494 178.008C302.454 178.06 301.804 178.086 300.998 178.086C300.218 178.086 300.218 177.8 300.218 177.384C300.218 177.046 300.218 173.12 300.218 173.12C300.218 172.626 300.296 172.392 300.894 172.392H301.44C303.078 172.392 304.196 172.418 305.08 172.86C306.016 173.354 306.432 174.212 306.692 174.81C307.108 175.798 307.342 175.954 307.758 175.954C308.486 175.954 308.902 175.642 308.902 174.992C308.902 174.706 308.876 173.874 308.85 172.964C308.824 172.21 308.824 171.352 308.798 171.04C308.72 170.338 308.434 170.13 307.68 170.13C306.718 170.13 304.742 170.312 302.012 170.312H295.096C294.498 170.312 294.212 170.598 294.212 170.91C294.212 171.43 294.68 171.508 295.148 171.794C295.85 172.236 295.902 172.834 295.902 173.848V183.624C295.902 185.054 295.798 185.964 295.564 186.51C295.096 187.654 294.03 187.394 294.03 188.2C294.03 188.642 294.472 188.876 295.044 188.876H302.558C305.314 188.876 306.536 189.084 307.446 189.084C309.448 189.084 308.98 186.822 309.5 185.028C309.578 184.716 309.682 184.274 309.682 183.988C309.682 183.364 309.11 183.052 308.564 183.052Z" fill="#FBFBFB"/>
<path d="M329.34 178.32C329.34 178.32 328.274 178.32 328.17 178.32C327.962 178.32 327.858 178.216 327.858 178.008V172.834C327.858 172.574 327.988 172.444 328.248 172.444C328.534 172.444 329.418 172.444 329.418 172.444C330.64 172.444 332.642 172.73 332.642 175.304C332.642 177.54 331.03 178.32 329.34 178.32ZM339.194 187.316C338.726 186.926 338.44 186.588 337.348 184.04C336.126 181.18 335.268 179.698 333.084 179.412C332.876 179.386 332.824 179.334 332.824 179.23C332.824 179.126 332.954 179.1 333.11 179.074C334.722 178.892 336.256 178.086 336.958 176.604C337.192 176.136 337.322 175.512 337.322 174.836C337.322 173.692 336.906 172.418 335.71 171.508C334.306 170.442 332.226 170.286 330.25 170.286C329.496 170.286 328.742 170.312 328.04 170.312H322.736C322.164 170.312 321.878 170.598 321.878 170.91C321.878 171.43 322.346 171.508 322.814 171.794C323.49 172.184 323.542 172.782 323.542 173.692V183.624C323.542 185.418 323.438 185.964 323.308 186.328C323.152 186.77 322.84 187.16 322.346 187.446C321.982 187.654 321.696 187.81 321.696 188.2C321.696 188.642 322.138 188.876 322.71 188.876H328.716C329.288 188.876 329.704 188.642 329.704 188.2C329.704 187.81 329.444 187.654 329.08 187.446C328.612 187.186 328.274 186.796 328.118 186.328C327.988 185.99 327.858 185.418 327.858 183.624C327.858 183.624 327.858 180.972 327.858 180.92C327.858 180.66 327.962 180.556 328.17 180.504C328.3 180.478 328.482 180.478 328.586 180.478C330.588 180.478 331.732 182.09 332.59 184.144C333.422 186.12 333.968 187.394 334.384 187.966C334.904 188.72 335.554 188.876 336.568 188.876H339.194C339.558 188.876 340.052 188.746 340.052 188.252C340.052 187.758 339.506 187.576 339.194 187.316Z" fill="#FBFBFB"/>
<path d="M359.215 178.32C359.215 178.32 358.149 178.32 358.045 178.32C357.837 178.32 357.733 178.216 357.733 178.008V172.834C357.733 172.574 357.863 172.444 358.123 172.444C358.409 172.444 359.293 172.444 359.293 172.444C360.515 172.444 362.517 172.73 362.517 175.304C362.517 177.54 360.905 178.32 359.215 178.32ZM369.069 187.316C368.601 186.926 368.315 186.588 367.223 184.04C366.001 181.18 365.143 179.698 362.959 179.412C362.751 179.386 362.699 179.334 362.699 179.23C362.699 179.126 362.829 179.1 362.985 179.074C364.597 178.892 366.131 178.086 366.833 176.604C367.067 176.136 367.197 175.512 367.197 174.836C367.197 173.692 366.781 172.418 365.585 171.508C364.181 170.442 362.101 170.286 360.125 170.286C359.371 170.286 358.617 170.312 357.915 170.312H352.611C352.039 170.312 351.753 170.598 351.753 170.91C351.753 171.43 352.221 171.508 352.689 171.794C353.365 172.184 353.417 172.782 353.417 173.692V183.624C353.417 185.418 353.313 185.964 353.183 186.328C353.027 186.77 352.715 187.16 352.221 187.446C351.857 187.654 351.571 187.81 351.571 188.2C351.571 188.642 352.013 188.876 352.585 188.876H358.591C359.163 188.876 359.579 188.642 359.579 188.2C359.579 187.81 359.319 187.654 358.955 187.446C358.487 187.186 358.149 186.796 357.993 186.328C357.863 185.99 357.733 185.418 357.733 183.624C357.733 183.624 357.733 180.972 357.733 180.92C357.733 180.66 357.837 180.556 358.045 180.504C358.175 180.478 358.357 180.478 358.461 180.478C360.463 180.478 361.607 182.09 362.465 184.144C363.297 186.12 363.843 187.394 364.259 187.966C364.779 188.72 365.429 188.876 366.443 188.876H369.069C369.433 188.876 369.927 188.746 369.927 188.252C369.927 187.758 369.381 187.576 369.069 187.316Z" fill="#FBFBFB"/>
<path d="M388.994 175.408C389.02 175.356 389.046 175.33 389.098 175.33C389.15 175.33 389.176 175.356 389.202 175.408L391.23 180.764C391.282 180.894 391.308 180.972 391.308 181.024C391.308 181.128 391.23 181.206 391.1 181.206L386.94 181.18C386.784 181.18 386.706 181.102 386.706 180.998C386.706 180.92 386.732 180.868 386.784 180.738L388.994 175.408ZM397.47 185.158C396.898 183.754 392.244 171.534 391.854 170.494C391.75 170.234 391.568 170.104 391.23 170.104H389.566C389.254 170.104 389.072 170.234 388.942 170.52L383.196 183.442C382.676 184.612 382.234 185.392 381.818 186.068C381.194 187.056 380.752 187.342 380.336 187.602C380.102 187.758 379.946 187.914 379.946 188.2C379.946 188.694 380.414 188.876 380.934 188.876H385.276C385.77 188.876 386.29 188.694 386.29 188.2C386.29 187.784 385.874 187.654 385.614 187.472C385.354 187.29 384.912 186.874 384.912 186.12C384.912 185.626 385.042 184.872 385.51 183.702C385.614 183.416 385.77 183.312 386.004 183.312H391.646C392.114 183.312 392.244 183.494 392.374 183.78C392.374 183.78 392.998 185.392 393.18 185.886C393.284 186.172 393.336 186.38 393.336 186.588C393.336 187.68 392.062 187.446 392.062 188.226C392.062 188.642 392.452 188.876 392.972 188.876H398.848C399.576 188.876 399.81 188.538 399.81 188.174C399.81 187.628 399.108 187.55 398.64 187.16C398.146 186.77 397.938 186.302 397.47 185.158Z" fill="#FBFBFB"/>
<path d="M424.588 183.052C424.094 183.052 423.756 183.39 423.34 184.014C422.456 185.34 421.65 186.094 420.142 186.51C419.778 186.614 419.102 186.744 418.53 186.744C418.192 186.744 417.906 186.692 417.698 186.588C417.126 186.276 417.126 185.392 417.126 183.832V173.874C417.126 172.86 417.178 172.21 417.88 171.794C418.348 171.508 418.816 171.43 418.816 170.91C418.816 170.598 418.556 170.312 417.958 170.312H412.004C411.406 170.312 411.12 170.598 411.12 170.91C411.12 171.43 411.614 171.508 412.082 171.794C412.758 172.21 412.81 172.834 412.81 173.848V183.598C412.81 185.418 412.68 185.964 412.55 186.328C412.394 186.77 412.108 187.134 411.64 187.394C411.25 187.602 410.964 187.758 410.964 188.2C410.964 188.642 411.38 188.876 411.952 188.876H418.582C421.338 188.876 422.482 189.084 423.47 189.084C425.524 189.084 425.03 186.718 425.498 185.028C425.576 184.716 425.706 184.248 425.706 183.962C425.706 183.338 425.108 183.052 424.588 183.052Z" fill="#FBFBFB"/>
<defs>
<clipPath id="clip0">
<rect width="436.855" height="188" fill="white"/>
</clipPath>
</defs>
</svg>
