<svg width="21" height="22" viewBox="0 0 21 22" fill="none" xmlns="http://www.w3.org/2000/svg">
<path d="M14.9135 0.701538H5.68347C4.17671 0.703472 2.73222 1.30289 1.66679 2.36832C0.601348 3.43376 0.00193422 4.87825 0 6.38501L0 15.615C0.00193422 17.1218 0.601348 18.5663 1.66679 19.6317C2.73222 20.6971 4.17671 21.2965 5.68347 21.2985H14.9135C16.4202 21.2965 17.8647 20.6971 18.9302 19.6317C19.9956 18.5663 20.595 17.1218 20.5969 15.615V6.38501C20.595 4.87825 19.9956 3.43376 18.9302 2.36832C17.8647 1.30289 16.4202 0.703472 14.9135 0.701538ZM18.7695 15.615C18.7682 16.6373 18.3615 17.6173 17.6386 18.3402C16.9158 19.063 15.9357 19.4697 14.9135 19.471H5.68347C4.66119 19.4697 3.68116 19.063 2.9583 18.3402C2.23544 17.6173 1.82877 16.6373 1.82748 15.615V6.38501C1.82877 5.36273 2.23544 4.3827 2.9583 3.65984C3.68116 2.93698 4.66119 2.53031 5.68347 2.52902H14.9135C15.9357 2.53031 16.9158 2.93698 17.6386 3.65984C18.3615 4.3827 18.7682 5.36273 18.7695 6.38501V15.615Z" fill="#FBFBFB"/>
<path d="M10.2984 5.69617C9.24878 5.69617 8.22272 6.00742 7.34999 6.59056C6.47726 7.1737 5.79704 8.00254 5.39537 8.97227C4.99369 9.942 4.8886 11.0091 5.09337 12.0385C5.29814 13.068 5.80358 14.0136 6.54578 14.7558C7.28798 15.498 8.2336 16.0034 9.26306 16.2082C10.2925 16.413 11.3596 16.3079 12.3293 15.9062C13.299 15.5045 14.1279 14.8243 14.711 13.9516C15.2942 13.0789 15.6054 12.0528 15.6054 11.0032C15.6038 9.59616 15.0442 8.24724 14.0492 7.25233C13.0543 6.25743 11.7054 5.69778 10.2984 5.69617V5.69617ZM10.2984 14.4827C9.61022 14.4827 8.93749 14.2786 8.36528 13.8963C7.79308 13.514 7.3471 12.9705 7.08374 12.3347C6.82038 11.6989 6.75148 10.9993 6.88574 10.3244C7.02 9.64939 7.35139 9.0294 7.83801 8.54278C8.32463 8.05616 8.94462 7.72477 9.61958 7.59051C10.2945 7.45625 10.9942 7.52516 11.63 7.78851C12.2658 8.05187 12.8092 8.49785 13.1915 9.07005C13.5739 9.64226 13.7779 10.315 13.7779 11.0032C13.776 11.9251 13.4087 12.8086 12.7564 13.4601C12.1042 14.1117 11.2203 14.4781 10.2984 14.479V14.4827Z" fill="#FBFBFB"/>
<path d="M15.8284 4.14331C15.5183 4.14341 15.2179 4.25102 14.9783 4.44778C14.7387 4.64455 14.5747 4.91831 14.5143 5.22242C14.4539 5.52652 14.5008 5.84216 14.6471 6.11556C14.7933 6.38895 15.0298 6.60318 15.3163 6.72175C15.6028 6.84032 15.9215 6.85589 16.2182 6.76581C16.5148 6.67572 16.7711 6.48556 16.9433 6.22772C17.1155 5.96989 17.1929 5.66032 17.1625 5.35178C17.132 5.04323 16.9955 4.75479 16.7762 4.53561C16.6517 4.41118 16.5039 4.31249 16.3413 4.24518C16.1787 4.17787 16.0044 4.14325 15.8284 4.14331V4.14331Z" fill="#FBFBFB"/>
</svg>
